<mxfile host="app.diagrams.net" modified="2022-03-10T04:30:21.416Z" agent="5.0 (Windows NT 10.0; Win64; x64) AppleWebKit/537.36 (KHTML, like Gecko) Chrome/99.0.4844.51 Safari/537.36" etag="XgUstbjU2pdqZ2RBZck0" version="17.1.0" type="github">
  <diagram id="R2lEEEUBdFMjLlhIrx00" name="Page-1">
    <mxGraphModel dx="2078" dy="983" grid="1" gridSize="10" guides="1" tooltips="1" connect="1" arrows="1" fold="1" page="1" pageScale="1" pageWidth="850" pageHeight="1100" math="0" shadow="0" extFonts="Permanent Marker^https://fonts.googleapis.com/css?family=Permanent+Marker">
      <root>
        <mxCell id="0" />
        <mxCell id="1" parent="0" />
        <mxCell id="ltW7EapP_vPT8Nog9dhj-1" value="Mahsiswa" style="swimlane;childLayout=stackLayout;horizontal=1;startSize=30;horizontalStack=0;rounded=1;fontSize=14;fontStyle=0;strokeWidth=2;resizeParent=0;resizeLast=1;shadow=0;dashed=0;align=center;" vertex="1" parent="1">
          <mxGeometry x="345" y="100" width="160" height="120" as="geometry" />
        </mxCell>
        <mxCell id="ltW7EapP_vPT8Nog9dhj-2" value="# mahasiswa_id&#xa;* nim&#xa;* nama&#xa;* gender&#xa;o organisasi" style="align=left;strokeColor=none;fillColor=none;spacingLeft=4;fontSize=12;verticalAlign=top;resizable=0;rotatable=0;part=1;" vertex="1" parent="ltW7EapP_vPT8Nog9dhj-1">
          <mxGeometry y="30" width="160" height="90" as="geometry" />
        </mxCell>
        <mxCell id="ltW7EapP_vPT8Nog9dhj-7" value="Customer" style="swimlane;childLayout=stackLayout;horizontal=1;startSize=30;horizontalStack=0;rounded=1;fontSize=14;fontStyle=0;strokeWidth=2;resizeParent=0;resizeLast=1;shadow=0;dashed=0;align=center;" vertex="1" parent="1">
          <mxGeometry x="140" y="530" width="170" height="140" as="geometry" />
        </mxCell>
        <mxCell id="ltW7EapP_vPT8Nog9dhj-8" value="# plat_nomor&#xa;*  no_antrean&#xa;*  nama_customer&#xa;*  alamat_customer&#xa;*  nomor_customer&#xa;*  keluhan_customer&#xa;o request_customer" style="align=left;strokeColor=none;fillColor=none;spacingLeft=4;fontSize=12;verticalAlign=top;resizable=0;rotatable=0;part=1;" vertex="1" parent="ltW7EapP_vPT8Nog9dhj-7">
          <mxGeometry y="30" width="170" height="110" as="geometry" />
        </mxCell>
        <mxCell id="ltW7EapP_vPT8Nog9dhj-9" value="Montir" style="swimlane;childLayout=stackLayout;horizontal=1;startSize=30;horizontalStack=0;rounded=1;fontSize=14;fontStyle=0;strokeWidth=2;resizeParent=0;resizeLast=1;shadow=0;dashed=0;align=center;" vertex="1" parent="1">
          <mxGeometry x="355" y="740" width="140" height="100" as="geometry" />
        </mxCell>
        <mxCell id="ltW7EapP_vPT8Nog9dhj-10" value="# id_montir&#xa;*  nama_montir&#xa;*  alamat_montir&#xa;*  nomor_montir" style="align=left;strokeColor=none;fillColor=none;spacingLeft=4;fontSize=12;verticalAlign=top;resizable=0;rotatable=0;part=1;" vertex="1" parent="ltW7EapP_vPT8Nog9dhj-9">
          <mxGeometry y="30" width="140" height="70" as="geometry" />
        </mxCell>
        <mxCell id="ltW7EapP_vPT8Nog9dhj-11" value="Service" style="swimlane;childLayout=stackLayout;horizontal=1;startSize=30;horizontalStack=0;rounded=1;fontSize=14;fontStyle=0;strokeWidth=2;resizeParent=0;resizeLast=1;shadow=0;dashed=0;align=center;" vertex="1" parent="1">
          <mxGeometry x="580" y="530" width="140" height="110" as="geometry" />
        </mxCell>
        <mxCell id="ltW7EapP_vPT8Nog9dhj-12" value="# no_antrean&#xa;*  jenis_service&#xa;*  alat_service&#xa;*  suku_cadang&#xa;*  biaya_service" style="align=left;strokeColor=none;fillColor=none;spacingLeft=4;fontSize=12;verticalAlign=top;resizable=0;rotatable=0;part=1;" vertex="1" parent="ltW7EapP_vPT8Nog9dhj-11">
          <mxGeometry y="30" width="140" height="80" as="geometry" />
        </mxCell>
      </root>
    </mxGraphModel>
  </diagram>
</mxfile>
